# xmcd
#
# Track frame offsets: 
#        150
#        13455
#        30237
#        48641
#        66239
#        84502
#        96902
#        115731
#        133898
#        149085
#
# Disc length: 2208 seconds
#
# Revision: 0
# Processed by: cddbd v1.5.2PL0 Copyright (c) Steve Scherf et al.
# Submitted via: ExactAudioCopy v0.95b4
#
DISCID=92089e0a
DTITLE=Fred Andrews and Honeybrowne - This Side of Crazy
DYEAR=2012
DGENRE=Country
TTITLE0=Rock It All Night
TTITLE1=Let The Music Play
TTITLE2=Beautiful Waste of Time
TTITLE3=This Side of Crazy
TTITLE4=Bring It On
TTITLE5=That's What I Think (When I Think About You)
TTITLE6=When Good Love Dies
TTITLE7=That Crazy Thing You Do
TTITLE8=Right Now On
TTITLE9=Not Saying Goodbye Today
EXTD=
EXTT0=
EXTT1=
EXTT2=
EXTT3=
EXTT4=
EXTT5=
EXTT6=
EXTT7=
EXTT8=
EXTT9=
PLAYORDER=
